<svg width="72" height="40" viewBox="0 0 72 40" fill="none" xmlns="http://www.w3.org/2000/svg">
<path d="M21.8384 0C18.2939 0 15.2846 1.4096 13.0088 3.81335H13.0028C12.8405 3.80665 12.6806 3.80726 12.5168 3.80726C7.886 3.80726 3.5393 6.49823 1.4198 10.6783C0.4934 12.5046 0.1496 14.4679 0.0428 16.4663C-0.0535 18.2602 0.0428 20.0795 0.0428 21.8561V39.0719H9.5519C9.5519 39.0719 9.5585 30.5924 9.5519 23.3017C9.5477 18.3942 9.5165 14.0208 9.5519 13.1232C9.7199 8.87823 10.8635 6.10167 12.9971 3.83102C20.0726 3.8365 24.6527 8.73203 24.9086 16.5259C24.9674 18.3151 24.9848 27.888 24.9848 27.888V39.0722H34.4882V23.9498C34.4882 19.379 34.5263 15.4197 34.2128 12.6949C33.3368 5.08041 28.7498 0 21.8384 0ZM47.0093 0.916179L37.5113 0.928058V16.0499C37.5113 20.6213 37.4732 24.5803 37.787 27.3051C38.6633 34.9199 43.25 40 50.1614 40C53.7059 40 56.7152 38.5904 58.991 36.1866C58.9919 36.1857 58.9958 36.1879 58.997 36.1866C59.1596 36.1937 59.3249 36.1927 59.489 36.1927C64.1195 36.1927 68.4605 33.5018 70.5803 29.322C71.5067 27.4954 71.8502 25.5324 71.9573 23.5337C72.0533 21.7401 71.9573 19.9208 71.9573 18.1442V0.928058H62.4479C62.4479 0.928058 62.4413 9.40759 62.4479 16.6983C62.4524 21.6061 62.4836 25.9789 62.4479 26.8768C62.2799 31.1212 61.1363 33.8983 59.003 36.169C51.9272 36.1635 47.3471 31.268 47.0912 23.474C47.0324 21.6849 47.0093 17.2493 47.0093 12.1059V0.916179Z" fill="white"/>
</svg>
